<?xml version="1.0" encoding="utf-8"?>
<!-- Svg Vector Icons : http://www.onlinewebfonts.com/icon -->
<!DOCTYPE svg PUBLIC "-//W3C//DTD SVG 1.1//EN" "http://www.w3.org/Graphics/SVG/1.1/DTD/svg11.dtd">
<svg version="1.1" xmlns="http://www.w3.org/2000/svg" xmlns:xlink="http://www.w3.org/1999/xlink" x="0px" y="0px" viewBox="0 0 1000 1000" enable-background="new 0 0 1000 1000" xml:space="preserve">
<metadata> Svg Vector Icons : http://www.onlinewebfonts.com/icon </metadata>
<g><g transform="translate(0.000000,511.000000) scale(0.100000,-0.100000)"><path d="M5130.1,4991.3c-148.1-50-244.2-112.1-342.3-220.2c-192.1-210.2-290.2-484.4-326.2-928.7c-52-608.4-242.2-960.7-684.5-1260.9c-132.1-92.1-448.3-246.2-788.6-386.3c-678.5-280.2-1008.7-476.3-1301-768.6c-386.3-388.3-628.5-880.6-552.4-1130.8c58-196.2,218.2-294.2,822.6-498.4c226.2-78.1,480.4-172.1,564.4-210.2C3232.7-737,3645-1353.4,3645-2088c-2-368.3-90.1-650.5-306.2-976.7c-302.2-458.3-752.6-850.6-1645.2-1433.1c-218.2-142.1-390.3-264.2-384.3-274.2s184.1-18,394.3-18c2119.6,0,3396.5,474.4,4219.1,1567.2c220.2,290.2,380.3,588.4,568.4,1060.8c206.2,508.4,424.3,770.6,804.6,962.7c194.2,96.1,416.3,158.1,832.6,230.2c192.2,34,400.3,80.1,462.4,102.1c220.2,84.1,308.2,232.2,284.2,480.4c-28,274.2-246.2,790.6-448.3,1066.8c-252.2,344.3-466.3,534.4-1050.8,930.7c-566.4,384.3-760.6,580.4-896.7,902.7c-106.1,254.2-144.1,648.5-96.1,1002.7c10,82.1,20,228.2,20,322.2c0,532.4-282.2,972.7-718.5,1116.8C5526.4,5009.3,5240.2,5027.3,5130.1,4991.3z M5280.3,3860.4c-20-8-402.3,56-416.3,68.1c-4,2,12,110.1,36,238.2l44,232.2l178.1-266.2C5220.2,3986.5,5290.3,3862.4,5280.3,3860.4z M5970.8,4120.6c18-114.1,32-210.2,28-214.2c-10-8-426.3-88.1-432.3-82.1c-2,2,74.1,122.1,170.1,266.2c96.1,146.1,180.1,258.2,186.1,250.2C5928.7,4332.8,5950.8,4234.7,5970.8,4120.6z"/></g></g>
</svg>