<?xml version="1.0"?>
<svg xmlns="http://www.w3.org/2000/svg" viewBox="0 0 24 24">
    <path style="text-indent:0;text-align:start;line-height:normal;text-transform:none;block-progression:tb;-inkscape-font-specification:Sans" d="M 5 2 L 5 6 L 5 6.53125 L 5.4375 6.84375 L 7.75 8.375 L 5.5 8.0625 L 3.71875 6.28125 L 2.28125 7.71875 L 4.28125 9.71875 L 4.53125 9.9375 L 4.84375 10 L 7.15625 10.34375 L 4.71875 11.03125 L 4.46875 11.125 L 4.28125 11.28125 L 2.28125 13.28125 L 3.71875 14.71875 L 5.53125 12.90625 L 7.84375 12.25 L 4.34375 15.25 L 4 15.53125 L 4 16 L 4 22 L 6 22 L 6 16.46875 L 8.28125 14.5 C 8.0947271 14.960991 8 15.4742 8 16 L 8 18 C 8 20.2 9.8 22 12 22 C 14.2 22 16 20.2 16 18 L 16 16 C 16 15.4742 15.905273 14.960991 15.71875 14.5 L 18 16.46875 L 18 22 L 20 22 L 20 16 L 20 15.53125 L 19.65625 15.25 L 16.25 12.3125 L 18.28125 12.90625 L 20.34375 14.75 L 21.65625 13.25 L 19.40625 11.25 L 19.25 11.09375 L 19.03125 11.03125 L 16.59375 10.34375 L 18.90625 10 L 19.1875 9.9375 L 19.40625 9.75 L 21.65625 7.75 L 20.34375 6.25 L 18.34375 8.03125 L 16.34375 8.3125 L 18.5625 6.84375 L 19 6.53125 L 19 6 L 19 2 L 17 2 L 17 5.4375 L 14 7.4375 L 14 7 C 14 5.9 13.1 5 12 5 C 10.9 5 10 5.9 10 7 L 10 7.4375 L 7 5.4375 L 7 2 L 5 2 z"/>
</svg>
